PathFileType	4	(X/Y/Z)	E:\Qualisys_Data\Carbon_Farble_Plate\Data\Amateur_Runner\S2\T2\S2T2V13_c3d.trc
DataRate	CameraRate	NumFrames	NumMarkers	Units	OrigDataRate	OrigDataStartFrame	OrigNumFrames
200.000000	200.000000	4	39	mm	200.000000	81	325
Frame#	Time	LSHO			RSHO			LICST			RICST			LASIS			LHEEL			RASIS			LTROC			RTROC			SACR			LTH1			LSK4			LTH2			LTH3			RHM5			LSK2			LTH4			RTH1			LTOE			RTH2			RTH3			RTH4			LLEP			RLEP			LSK1			LSK3			RSK1			LHM5			RSK2			LFT1			RSK3			RSK4			LLME			RLME			RTOE			RHEEL			RFT1			RFT2			LFT2			
		X1	Y1	Z1	X2	Y2	Z2	X3	Y3	Z3	X4	Y4	Z4	X5	Y5	Z5	X6	Y6	Z6	X7	Y7	Z7	X8	Y8	Z8	X9	Y9	Z9	X10	Y10	Z10	X11	Y11	Z11	X12	Y12	Z12	X13	Y13	Z13	X14	Y14	Z14	X15	Y15	Z15	X16	Y16	Z16	X17	Y17	Z17	X18	Y18	Z18	X19	Y19	Z19	X20	Y20	Z20	X21	Y21	Z21	X22	Y22	Z22	X23	Y23	Z23	X24	Y24	Z24	X25	Y25	Z25	X26	Y26	Z26	X27	Y27	Z27	X28	Y28	Z28	X29	Y29	Z29	X30	Y30	Z30	X31	Y31	Z31	X32	Y32	Z32	X33	Y33	Z33	X34	Y34	Z34	X35	Y35	Z35	X36	Y36	Z36	X37	Y37	Z37	X38	Y38	Z38	X39	Y39	Z39	

82	0.405	-1124.847290039062	1520.487548828125	-417.2633972167969	-1036.31298828125	1495.8974609375	-128.1629943847656	-1119.685668945312	1048.259033203125	-416.4313659667969	-1077.369506835938	1037.413452148438	-121.0664749145508	-1060.313232421875	1000.079162597656	-401.0274353027344	-999.1716918945312	106.9624404907227	-291.0662841796875	-1026.152954101562	985.567138671875	-146.9323425292969	-1179.92041015625	919.1737060546876	-418.10693359375	-1183.2451171875	955.7642211914062	-100.261474609375	-1193.760009765625	1085.454711914062	-253.1847534179688	-995.9984741210938	711.3894653320312	-430.9986572265625	-1018.668029785156	318.8428039550781	-391.1137390136719	-1076.822631835938	685.9996337890625	-424.8028564453125	-965.384521484375	615.757080078125	-406.9645385742188	-1644.808349609375	216.9030914306641	-107.6223831176758	-1026.601684570312	416.5376281738281	-405.416259765625	-1046.316650390625	593.5328369140625	-397.6703491210938	-1148.0283203125	682.8973999023438	-107.5883331298828	-767.9619750976562	181.6705322265625	-349.3055419921875	-1218.917846679688	713.2923583984375	-98.52552032470705	-1186.731201171875	590.5153198242188	-115.7256698608398	-1259.931884765625	624.2679443359375	-113.7862701416016	-992.7238159179688	550.935791015625	-394.2680358886719	-1260.4248046875	572.48193359375	-110.3285903930664	-949.1434936523438	423.5944213867188	-398.6350708007812	-940.072265625	324.8526306152344	-387.9269104003906	-1338.319091796875	476.6379699707031	-99.02926635742188	-821.2846069335938	140.1934967041016	-397.5210876464844	-1382.98486328125	543.0902099609375	-96.05303955078124	-976.5406494140624	85.18233489990234	-270.7722778320312	-1422.652465820312	419.5015258789062	-101.4298400878906	-1464.350341796875	486.4909362792969	-103.9078903198242	-951.7750854492188	141.0428619384766	-359.3560791015625	-1602.511474609375	343.7564392089844	-126.4925003051758	-1605.32421875	150.0981903076172	-158.1647796630859	-1614.619140625	398.4719543457031	-184.7311706542969	-1634.717163085938	378.4248046875	-220.1179809570312	-1648.451904296875	394.0109558105469	-167.2344055175781	-989.3540649414062	75.33129119873047	-322.3164367675781
83	0.41	-1109.088012695312	1517.889404296875	-418.6676025390625	-1020.249877929688	1493.932006835938	-129.1558685302734	-1104.18115234375	1045.6572265625	-416.2881774902344	-1061.559936523438	1035.376342773438	-121.3026504516602	-1044.027709960938	997.1380004882812	-401.0911560058594	-981.4931030273438	105.2832412719727	-288.9046325683594	-1010.051635742188	983.9400024414062	-146.7764892578125	-1164.450439453125	916.6280517578124	-417.2039489746094	-1166.839477539062	952.875	-100.5589447021484	-1177.906616210938	1083.016967773438	-253.4493713378906	-980.736328125	707.6200561523438	-432.72802734375	-1002.069763183594	316.270751953125	-390.21142578125	-1061.854614257812	682.5337524414062	-425.5584411621094	-950.2389526367188	612.1297607421875	-407.7738647460938	-1632.953247070312	224.2557678222656	-106.5630645751953	-1010.340637207031	413.8147888183594	-404.9430541992188	-1031.599487304688	590.1695556640625	-397.2001037597656	-1128.8251953125	680.5504760742188	-107.7149887084961	-750.88916015625	181.0027465820312	-348.0971069335938	-1200.096313476562	709.6438598632812	-98.58666229248048	-1166.839599609375	587.046630859375	-115.8732833862305	-1240.613159179688	620.267822265625	-113.6701507568359	-977.2744750976562	548.5070190429688	-393.7919616699219	-1240.392700195312	569.453125	-109.8569259643555	-932.585205078125	421.4143981933594	-397.5584716796875	-923.001220703125	322.8232727050781	-387.1091918945312	-1320.087280273438	475.285888671875	-99.18855285644533	-804.2176513671875	139.2040710449219	-396.0480041503906	-1362.719116210938	542.4571533203125	-96.38861083984376	-958.970947265625	82.89152526855469	-269.513916015625	-1405.709594726562	420.5326843261719	-101.5164337158203	-1446.071655273438	488.6551818847656	-104.6486511230469	-934.3436279296876	139.0419006347656	-357.99072265625	-1588.38720703125	349.9083251953125	-127.024169921875	-1594.41650390625	156.3169097900391	-157.1197204589844	-1598.932250976562	404.5093383789062	-185.6972503662109	-1619.477294921875	384.503173828125	-220.9931945800781	-1633.446044921875	400.7061157226562	-168.1455535888672	-971.793701171875	73.19438934326172	-321.2317504882812
84	0.415	-1093.36962890625	1515.047607421875	-419.5006408691406	-1004.002075195312	1491.535766601562	-130.2574615478516	-1087.851196289062	1042.953125	-416.3792114257812	-1046.217041015625	1033.202026367188	-120.9522399902344	-1028.203735351562	994.7092895507812	-401.151611328125	-964.9407958984376	102.3802032470703	-288.2971496582031	-993.842529296875	981.881103515625	-147.0351409912109	-1148.44189453125	913.5601806640624	-416.5594482421875	-1150.335327148438	949.69873046875	-100.8254470825195	-1162.209106445312	1080.51611328125	-253.5768280029297	-965.5862426757812	703.8345947265625	-434.3779296875	-985.6033935546876	313.7425231933594	-389.3663635253906	-1046.737915039062	679.0016479492188	-426.7581176757812	-934.8831787109376	609.1098022460938	-408.06640625	-1619.559692382812	232.2074127197266	-105.995246887207	-993.979248046875	411.1578979492188	-404.2439575195312	-1016.638244628906	586.7442626953125	-397.4293823242188	-1110.485473632812	677.3336791992188	-107.7904586791992	-734.782470703125	179.6973876953125	-346.6083068847656	-1181.538696289062	705.8319091796875	-98.1239013671875	-1147.091918945312	583.99951171875	-115.1652526855469	-1220.954223632812	616.1886596679688	-113.4191436767578	-961.5932006835938	545.6301879882812	-393.2634887695312	-1220.236938476562	565.9226684570312	-108.5837249755859	-916.3636474609376	418.982666015625	-396.495361328125	-907.1004638671876	320.5686340332031	-385.2652893066406	-1301.534790039062	472.8969421386719	-98.91883850097656	-788.0780639648438	137.7531890869141	-394.6432495117188	-1342.146484375	541.8757934570312	-96.5589599609375	-942.1466674804688	80.8883056640625	-268.0662536621094	-1389.46044921875	420.5316772460938	-101.7868194580078	-1426.970947265625	490.1615295410156	-105.2258453369141	-918.0686645507812	136.4652099609375	-356.3875732421875	-1573.235961914062	355.8717651367188	-127.4393920898438	-1583.38720703125	162.2392120361328	-156.1087646484375	-1583.471313476562	411.5371704101562	-187.5269622802734	-1603.411743164062	390.0325012207031	-221.8808288574219	-1616.70947265625	407.4108581542969	-169.0883026123047	-955.0638427734376	70.51253509521484	-319.6831665039062
85	0.42	-1077.712524414062	1511.917236328125	-420.8822937011719	-987.9697265625	1489.05810546875	-131.1441040039062	-1072.32763671875	1040.26611328125	-416.6588134765625	-1030.471923828125	1030.778076171875	-121.3056564331055	-1012.351806640625	992.025634765625	-401.5562438964844	-949.751220703125	99.85347747802734	-286.753662109375	-977.7713623046876	979.7584228515624	-146.6768798828125	-1132.603881835938	910.6776123046876	-416.7885437011719	-1133.927124023438	946.097412109375	-101.3354263305664	-1146.454956054688	1077.444946289062	-253.3013153076172	-950.2376708984376	700.11181640625	-435.3629455566406	-969.7031860351562	311.0522155761719	-388.4596252441406	-1031.505859375	675.430908203125	-428.0788879394531	-919.8463134765624	605.4609985351562	-407.7538757324219	-1606.696533203125	239.0921173095703	-105.5283279418945	-977.7772216796876	408.4582824707031	-404.20361328125	-1001.559387207031	583.1439819335938	-397.6208801269531	-1091.050415039062	674.3607177734375	-106.3159332275391	-719.614013671875	177.7639923095703	-345.1219177246094	-1163.2607421875	701.454345703125	-97.93098449707033	-1127.093505859375	580.1801147460938	-114.4500961303711	-1201.610595703125	611.4212646484375	-113.3543090820312	-945.8475341796876	542.9608154296875	-392.9071655273438	-1199.6806640625	561.5001831054688	-108.0348358154297	-900.3298950195312	416.2942199707031	-395.4443664550781	-891.107666015625	317.7202453613281	-383.6162109375	-1282.376708984375	470.6597595214844	-98.7960205078125	-772.4075317382812	135.2190093994141	-392.6187438964844	-1321.167114257812	540.6993408203125	-96.80625915527344	-927.0999755859376	77.8965072631836	-266.3129577636719	-1372.026977539062	420.887939453125	-101.9455642700195	-1407.111572265625	491.4204711914062	-105.822021484375	-902.5465698242188	133.8746185302734	-354.7156372070312	-1556.854736328125	361.80322265625	-127.9850769042969	-1571.94873046875	168.1709594726562	-154.5417938232422	-1565.559814453125	416.5868530273438	-187.964599609375	-1586.721801757812	396.3877563476562	-223.1384887695312	-1599.801513671875	414.0826110839844	-169.9290618896484	-939.345458984375	67.85587310791016	-317.8298950195312
